<?xml version="1.0" encoding="utf-8"?>
<!-- Generator: Adobe Illustrator 14.0.0, SVG Export Plug-In . SVG Version: 6.00 Build 43363)  -->
<!DOCTYPE svg PUBLIC "-//W3C//DTD SVG 1.1//EN" "http://www.w3.org/Graphics/SVG/1.1/DTD/svg11.dtd">
<svg version="1.1" id="Capa_1" xmlns="http://www.w3.org/2000/svg" xmlns:xlink="http://www.w3.org/1999/xlink" x="0px" y="0px"
	 width="439.37px" height="96.378px" viewBox="0 0 439.37 96.378" style="enable-background:new 0 0 439.37 96.378;"
	 xml:space="preserve">
<style type="text/css">
<![CDATA[
	.st0{fill:#E89B45;}
	.st1{fill:#EC773C;}
	.st2{fill:#EF8855;}
	.st3{fill:#FFFFFF;}
]]>
</style>
<g>
	<path class="st1" d="M138.472,61.527h-9.467v-3.818l-3.941,2.251c-1.094,0.617-2.242,1.1-3.439,1.445
		c-1.199,0.339-2.498,0.51-3.889,0.51c-3.285,0-5.877-1.015-7.768-3.063c-1.893-2.038-2.838-4.735-2.838-8.094V28.105h9.473v20.49
		c0,1.227,0.434,2.298,1.311,3.225c0.865,0.932,2.197,1.404,4.012,1.404c1.67,0,3.111-0.358,4.314-1.072
		c1.203-0.713,2.125-1.366,2.766-1.961V28.105h9.467V61.527z"/>
	<path class="st1" d="M175.649,43.906c0,5.172-1.594,9.434-4.766,12.784c-3.186,3.354-7.043,5.034-11.586,5.034
		c-1.568,0-3-0.136-4.301-0.389c-1.305-0.25-2.367-0.582-3.172-0.982v11.334h-9.381V28.105l8.971-0.684l0.504,1.969l3.182-1.556
		c1.027-0.503,1.928-0.884,2.719-1.162c0.789-0.28,1.729-0.425,2.811-0.425c4.605,0,8.252,1.672,10.965,4.998
		C174.294,34.577,175.649,38.803,175.649,43.906z M165.983,44.342c0-2.758-0.723-5.137-2.148-7.15
		c-1.432-2.017-3.4-3.018-5.916-3.018c-1.658,0-2.967,0.254-3.918,0.795c-0.959,0.536-1.678,1.09-2.176,1.672v15.795
		c0.498,0.589,1.318,1.065,2.484,1.416c1.168,0.365,2.449,0.539,3.857,0.539c2.682,0,4.65-0.848,5.922-2.553
		C165.345,50.145,165.983,47.636,165.983,44.342z"/>
</g>
<g>
	<g>
		<path class="st1" d="M49.423,1.396c0,0,17.416,39.594,0.234,95.143C35.669,66.439,39.593,16.923,49.423,1.396z"/>
	</g>
	<g>
		<path class="st0" d="M70.38,10.552c0,0,23.531,33.146-0.705,76.612C89.403,63.08,94.267,37.671,70.38,10.552z"/>
	</g>
	<g>
		<path class="st0" d="M28.88,86.34c0,0-23.531-33.145,0.711-76.609C9.853,33.815,4.991,59.227,28.88,86.34z"/>
	</g>
	<g>
		<path class="st2" d="M57.692,1.933c0,0,17.598,38.812,0.236,93.261C79.603,65.619,81.456,29.209,57.692,1.933z"/>
	</g>
	<g>
		<path class="st2" d="M41.565,95.193c0,0-17.6-38.814-0.24-93.261C19.66,31.506,17.802,67.918,41.565,95.193z"/>
	</g>
	<g>
		<path class="st1" d="M97.005,48.359c0,0-39.773,17.341-95.568,0.219C31.671,34.665,81.417,38.569,97.005,48.359z"/>
	</g>
	<g>
		<path class="st0" d="M87.577,69.225c0,0-33.287,23.422-76.958-0.706C34.813,88.162,60.337,93.005,87.577,69.225z"/>
	</g>
	<g>
		<path class="st2" d="M96.478,56.6c0,0-38.996,17.51-93.69,0.223C32.491,78.4,69.071,80.248,96.478,56.6z"/>
	</g>
	<g>
		<path class="st0" d="M11.679,27.903c0,0,33.295-23.423,76.957,0.706C64.452,8.966,38.917,4.125,11.679,27.903z"/>
	</g>
	<g>
		<path class="st2" d="M2.787,40.525c0,0,38.985-17.512,93.685-0.223C66.771,18.725,30.187,16.881,2.787,40.525z"/>
	</g>
</g>
<g>
	<g>
		<path class="st3" d="M348.841,34.967l-10.957,25.949h-6.805l-5.414-15.543l-5.297,15.543h-6.803l-10.957-25.949l7.629-3.473
			l6.766,18.676l5.52-17.521h6.795l5.395,17.514l7.039-18.668L348.841,34.967z"/>
	</g>
	<g>
		<path class="st3" d="M381.177,57.275l-6.34,5.142c-0.969-0.315-1.818-0.814-2.543-1.491c-0.725-0.674-1.201-1.448-1.438-2.326
			l-4.963,2.816c-0.193,0.108-0.52,0.223-0.984,0.328c-0.477,0.114-0.861,0.172-1.182,0.172c-3.822,0-6.98-1.313-9.467-3.923
			c-2.496-2.614-3.738-6.253-3.738-10.903c0-4.422,1.291-8.073,3.875-10.947c2.588-2.863,5.885-4.307,9.898-4.307
			c1.598,0,3.098,0.317,4.484,0.958c1.389,0.634,2.301,1.197,2.744,1.688l4.639-1.65l1.584,0.49v18.063
			c0,1.58,0.281,2.834,0.834,3.768C379.138,56.078,379.999,56.791,381.177,57.275z M370.036,53.314V40.924
			c-0.535-0.652-1.219-1.215-2.064-1.689c-0.846-0.468-1.883-0.706-3.102-0.706c-1.762,0-3.227,0.655-4.391,1.954
			c-1.164,1.295-1.734,3.443-1.734,6.439c0,2.381,0.533,4.29,1.617,5.732c1.08,1.434,2.605,2.156,4.564,2.156
			c1.105,0,2.164-0.176,3.133-0.535C369.038,53.914,369.692,53.602,370.036,53.314z"/>
	</g>
	<g>
		<path class="st3" d="M404.812,41.223c-0.514-0.396-1.236-0.737-2.168-1.034c-0.936-0.302-2.021-0.456-3.281-0.456
			c-1.473,0-2.719,0.225-3.734,0.66c-1.002,0.443-1.85,0.996-2.516,1.639v19.109h-8.061V32.873l8.061-0.578v2.799l2.58-1.582
			c0.795-0.486,1.715-0.903,2.752-1.225c1.037-0.322,1.988-0.486,2.859-0.486c0.92,0,1.656,0.059,2.221,0.168
			c0.557,0.11,0.986,0.24,1.287,0.381V41.223z"/>
	</g>
	<g>
		<path class="st3" d="M247.196,57.273l-6.344,5.142c-0.977-0.31-1.824-0.813-2.543-1.495c-0.729-0.675-1.201-1.442-1.436-2.318
			l-4.967,2.817c-0.195,0.105-0.521,0.216-0.986,0.326c-0.473,0.111-0.859,0.167-1.182,0.167c-3.814,0-6.979-1.307-9.465-3.919
			c-2.496-2.616-3.734-6.256-3.734-10.901c0-4.428,1.287-8.078,3.871-10.951c2.592-2.867,5.887-4.308,9.898-4.308
			c1.598,0,3.094,0.32,4.482,0.96c1.395,0.629,2.301,1.197,2.746,1.688l4.637-1.65l1.59,0.492v18.057c0,1.584,0.277,2.838,0.83,3.77
			C245.146,56.078,246.015,56.786,247.196,57.273z M236.042,53.314V40.922c-0.525-0.65-1.211-1.218-2.059-1.689
			c-0.844-0.464-1.875-0.705-3.105-0.705c-1.758,0-3.219,0.653-4.377,1.951c-1.17,1.296-1.746,3.446-1.746,6.446
			c0,2.374,0.537,4.287,1.617,5.728c1.08,1.439,2.604,2.157,4.568,2.157c1.105,0,2.164-0.182,3.133-0.534
			C235.06,53.918,235.71,53.602,236.042,53.314z"/>
	</g>
	<g>
		<path class="st3" d="M270.866,47.322c0-4.374,1.355-7.977,4.055-10.813c2.701-2.838,5.982-4.256,9.85-4.256
			c1.328,0,2.551,0.115,3.65,0.328c1.113,0.211,2.018,0.49,2.701,0.831V21.469h7.977v39.22l-7.627,0.578l-0.434-1.667l-2.701,1.314
			c-0.875,0.426-1.641,0.747-2.311,0.984c-0.676,0.234-1.471,0.359-2.396,0.359c-3.906,0-7.012-1.417-9.316-4.229
			C272.021,55.213,270.866,51.637,270.866,47.322z M279.085,46.951c0,2.334,0.615,4.346,1.822,6.052
			c1.219,1.703,2.896,2.552,5.027,2.552c1.414,0,2.525-0.215,3.34-0.672c0.813-0.455,1.42-0.924,1.848-1.413V40.108
			c-0.428-0.497-1.125-0.903-2.115-1.196c-0.992-0.312-2.082-0.457-3.277-0.457c-2.279,0-3.957,0.717-5.035,2.16
			C279.628,42.049,279.085,44.168,279.085,46.951z"/>
	</g>
	<g>
		<path class="st3" d="M270.108,41.472c-0.51-0.392-1.234-0.734-2.162-1.032c-0.934-0.305-2.027-0.453-3.281-0.453
			c-1.475,0-2.723,0.219-3.732,0.658c-1.006,0.441-1.85,0.992-2.525,1.637v19.111h-8.055V33.126l8.055-0.577v2.801l2.582-1.583
			c0.799-0.487,1.717-0.904,2.754-1.228c1.039-0.322,1.99-0.486,2.859-0.486c0.92,0,1.658,0.055,2.223,0.168
			c0.561,0.113,0.99,0.236,1.283,0.377V41.472z"/>
	</g>
	<g>
		<path class="st3" d="M437.706,47.869H416.71c0,4.248,2.041,6.369,6.121,6.369c2.082,0,3.678-0.895,4.789-2.681h9.691
			c-0.773,2.552-1.91,4.526-3.414,5.924c-2.723,2.53-6.369,3.798-10.939,3.798c-5.813,0-10.178-1.768-13.104-5.305
			c-2.195-2.64-3.293-5.859-3.293-9.66c0-4.51,1.373-8.176,4.115-11s6.611-4.236,11.609-4.236c6.156,0,10.555,2.238,13.197,6.717
			c1.482,2.523,2.223,5.454,2.223,8.793V47.869z M428.351,42.17c-0.707-3.188-2.596-4.783-5.668-4.783
			c-1.697,0-3.07,0.507-4.121,1.521c-0.83,0.808-1.354,1.896-1.576,3.262H428.351z"/>
	</g>
	<g>
		<path class="st3" d="M213.392,61.232h-9.824V47.218c0-2.464-0.277-4.095-0.83-4.89c-0.813-1.173-2.029-1.759-3.65-1.759
			c-1.504,0-2.75,0.505-3.738,1.515c-0.912,0.932-1.365,2.367-1.365,4.309v14.84h-9.826V16.381h9.826v20.635
			c1.131-1.314,2.174-2.24,3.131-2.777c1.568-0.895,3.508-1.344,5.811-1.344c2.943,0,5.369,0.816,7.277,2.448
			c2.127,1.833,3.189,4.579,3.189,8.243V61.232z"/>
	</g>
</g>
</svg>
